Coordinates
version=1
nRows=13
nColumns=40
inDegrees=yes

Units are S.I. units (second, meters, Newtons, ...)
If the header above contains a line with 'inDegrees', this indicates whether rotational values are in degrees (yes) or radians (no).

endheader
time	pelvis_tilt	pelvis_list	pelvis_rotation	pelvis_tx	pelvis_ty	pelvis_tz	hip_flexion_r	hip_adduction_r	hip_rotation_r	knee_angle_r	knee_angle_r_beta	ankle_angle_r	subtalar_angle_r	mtp_angle_r	hip_flexion_l	hip_adduction_l	hip_rotation_l	knee_angle_l	knee_angle_l_beta	ankle_angle_l	subtalar_angle_l	mtp_angle_l	lumbar_extension	lumbar_bending	lumbar_rotation	arm_flex_r	arm_add_r	arm_rot_r	elbow_flex_r	pro_sup_r	wrist_flex_r	wrist_dev_r	arm_flex_l	arm_add_l	arm_rot_l	elbow_flex_l	pro_sup_l	wrist_flex_l	wrist_dev_l
      2.42000000	    -16.66553559	     -2.59490859	     -2.02860575	      0.13836372	      0.53059226	     -1.19346862	     85.36165131	    -44.16739484	      4.04043646	    107.50185640	      1.87626135	     29.79856237	     12.51110894	      0.00000000	     95.27637699	    -48.83587474	     13.63209057	    107.30649995	      1.87285173	     27.51785112	     23.71581978	      0.00000000	    -13.05278060	      3.18833288	      1.87420095	     44.99992434	    -14.99999999	     44.99992434	     75.00017585	     45.00000026	      0.00000000	      0.00000000	     44.99992434	    -14.99999999	     44.99992434	     75.00017585	     45.00000026	      0.00000000	      0.00000000
      2.42500000	    -17.13344241	     -2.60788638	     -2.05137067	      0.13830356	      0.53432285	     -1.19330745	     85.13432393	    -43.99198367	      3.40981821	    106.85569127	      1.86498364	     29.60844317	     12.46880587	      0.00000000	     95.02700843	    -48.80508811	     12.95676858	    106.63003777	      1.86104524	     27.31669480	     23.64858751	      0.00000000	    -12.46847142	      3.19490538	      1.89153323	     44.99992434	    -14.99999999	     44.99992434	     75.00017585	     45.00000026	      0.00000000	      0.00000000	     44.99992434	    -14.99999999	     44.99992434	     75.00017585	     45.00000026	      0.00000000	      0.00000000
      2.43000000	    -16.82821769	     -2.51708612	     -2.03778145	      0.13810240	      0.54078257	     -1.19315461	     83.94219028	    -43.81890706	      2.62225168	    105.91679091	      1.84859673	     28.97809851	     11.51864001	      0.00000000	     93.39227791	    -48.79847912	     11.63559891	    105.67201806	      1.84432464	     26.77076949	     22.80194605	      0.00000000	    -12.96157793	      3.10311685	      1.94515435	     44.99992434	    -14.99999999	     44.99992434	     75.00017585	     45.00000026	      0.00000000	      0.00000000	     44.99992434	    -14.99999999	     44.99992434	     75.00017585	     45.00000026	      0.00000000	      0.00000000
      2.43500000	    -16.59293342	     -2.32579342	     -1.98911360	      0.13834495	      0.54677347	     -1.19300530	     82.91851788	    -43.78346503	      2.08567174	    105.04247996	      1.83333713	     28.84339326	     11.50020823	      0.00000000	     91.67777253	    -48.82118848	     10.17032940	    104.75199435	      1.82826720	     26.77504484	     22.75562599	      0.00000000	    -13.27675830	      2.90256114	      1.99612881	     44.99992434	    -14.99999999	     44.99992434	     75.00017585	     45.00000026	      0.00000000	      0.00000000	     44.99992434	    -14.99999999	     44.99992434	     75.00017585	     45.00000026	      0.00000000	      0.00000000
      2.44000000	    -17.11634759	     -2.34419433	     -2.02460478	      0.13833372	      0.55042883	     -1.19277494	     82.76097398	    -43.58863485	      1.47025851	    104.37480229	      1.82168396	     28.67120893	     11.53629760	      0.00000000	     91.49209503	    -48.76846533	      9.56217532	    104.03219472	      1.81570433	     26.58722486	     22.75114915	      0.00000000	    -12.59639751	      2.90899208	      2.01113998	     44.99992434	    -14.99999999	     44.99992434	     75.00017585	     45.00000026	      0.00000000	      0.00000000	     44.99992434	    -14.99999999	     44.99992434	     75.00017585	     45.00000026	      0.00000000	      0.00000000
      2.44500000	    -16.88523641	     -2.26520510	     -2.03432148	      0.13837600	      0.55660136	     -1.19255199	     81.64465133	    -43.40741131	      0.72632855	    103.44704959	      1.80549162	     28.18331083	     10.89919034	      0.00000000	     89.96295548	    -48.77948392	      8.32082885	    103.05987715	      1.79873418	     26.20324836	     22.23149934	      0.00000000	    -12.93749015	      2.81407419	      2.04813130	     44.99992434	    -14.99999999	     44.99992434	     75.00017585	     45.00000026	      0.00000000	      0.00000000	     44.99992434	    -14.99999999	     44.99992434	     75.00017585	     45.00000026	      0.00000000	      0.00000000
      2.45000000	    -16.90973554	     -2.18767567	     -2.05780712	      0.13854343	      0.56185786	     -1.19230765	     80.87243315	    -43.25069779	      0.08799979	    102.59571365	      1.79063300	     27.90222367	     10.75061204	      0.00000000	     88.85333033	    -48.77765356	      7.26064439	    102.17732468	      1.78333074	     25.93434949	     22.06877939	      0.00000000	    -12.89196612	      2.69662298	      2.10582175	     44.99992434	    -14.99999999	     44.99992434	     75.00017585	     45.00000026	      0.00000000	      0.00000000	     44.99992434	    -14.99999999	     44.99992434	     75.00017585	     45.00000026	      0.00000000	      0.00000000
      2.45500000	    -16.90098909	     -2.09969877	     -2.06600880	      0.13883045	      0.56718830	     -1.19210051	     80.06070095	    -43.12311767	     -0.54474458	    101.73167863	      1.77555275	     27.63101407	     10.59604123	      0.00000000	     87.65694806	    -48.77689999	      6.13709156	    101.28588729	      1.76777222	     25.73070826	     21.94543923	      0.00000000	    -12.86608701	      2.59998239	      2.15094305	     44.99992434	    -14.99999999	     44.99992434	     75.00017585	     45.00000026	      0.00000000	      0.00000000	     44.99992434	    -14.99999999	     44.99992434	     75.00017585	     45.00000026	      0.00000000	      0.00000000
      2.46000000	    -17.41586011	     -2.12206854	     -2.09765618	      0.13899945	      0.57086689	     -1.19190585	     79.87205792	    -42.93698622	     -1.15700811	    101.01933682	      1.76312004	     27.46612749	     10.63904074	      0.00000000	     87.46698742	    -48.73062488	      5.53239441	    100.56380098	      1.75516944	     25.54184736	     21.96064268	      0.00000000	    -12.13949264	      2.62293154	      2.16509791	     44.99992434	    -14.99999999	     44.99992434	     75.00017585	     45.00000026	      0.00000000	      0.00000000	     44.99992434	    -14.99999999	     44.99992434	     75.00017585	     45.00000026	      0.00000000	      0.00000000
      2.46500000	    -17.17334775	     -2.10038016	     -2.13088896	      0.13917735	      0.57705919	     -1.19167637	     78.66122677	    -42.71716860	     -1.97622298	    100.01150813	      1.74553011	     26.95286278	     10.07573023	      0.00000000	     86.01097814	    -48.71522538	      4.45708233	     99.56700336	      1.73777204	     25.06739873	     21.54273793	      0.00000000	    -12.45784574	      2.52928155	      2.24513032	     44.99992434	    -14.99999999	     44.99992434	     75.00017585	     45.00000026	      0.00000000	      0.00000000	     44.99992434	    -14.99999999	     44.99992434	     75.00017585	     45.00000026	      0.00000000	      0.00000000
      2.47000000	    -17.65416186	     -2.12586292	     -2.15086745	      0.13949877	      0.58080025	     -1.19147812	     78.41642889	    -42.53716832	     -2.58696234	     99.29013604	      1.73293979	     26.80694570	     10.14462220	      0.00000000	     85.76395104	    -48.69603794	      3.80385251	     98.82669615	      1.72485124	     24.90886773	     21.59281031	      0.00000000	    -11.73441105	      2.59663062	      2.24084392	     44.99992434	    -14.99999999	     44.99992434	     75.00017585	     45.00000026	      0.00000000	      0.00000000	     44.99992434	    -14.99999999	     44.99992434	     75.00017585	     45.00000026	      0.00000000	      0.00000000
      2.47500000	    -16.86965886	     -2.00856197	     -2.13259306	      0.14019862	      0.58850961	     -1.19132653	     76.50465408	    -42.44793037	     -3.41357203	     98.12799622	      1.71265662	     26.44535820	      9.83738497	      0.00000000	     83.28882180	    -48.73473413	      2.21525589	     97.67161351	      1.70469124	     24.68215818	     21.43881680	      0.00000000	    -12.67946498	      2.44679848	      2.37497925	     44.99992434	    -14.99999999	     44.99992434	     75.00017585	     45.00000026	      0.00000000	      0.00000000	     44.99992434	    -14.99999999	     44.99992434	     75.00017585	     45.00000026	      0.00000000	      0.00000000
      2.48000000	    -16.88329610	     -1.76359529	     -2.23154363	      0.14065989	      0.59373797	     -1.19076488	     75.95664702	    -42.27639966	     -3.76240803	     97.28282229	      1.69790555	     26.17632795	      9.79701603	      0.00000000	     81.86911070	    -48.76923456	      0.82537293	     96.68154043	      1.68741121	     24.38026202	     21.36272271	      0.00000000	    -12.55091240	      2.18320108	      2.46290432	     44.99992434	    -14.99999999	     44.99992434	     75.00017585	     45.00000026	      0.00000000	      0.00000000	     44.99992434	    -14.99999999	     44.99992434	     75.00017585	     45.00000026	      0.00000000	      0.00000000
